ply
format ascii 1.0
comment VCGLIB generated
comment TextureFile glowing-fire-flame.jpg
element vertex 39
property float x
property float y
property float z
property float nx
property float ny
property float nz
property uchar red
property uchar green
property uchar blue
property uchar alpha
property float texture_u
property float texture_v
element face 48
property list uchar int vertex_indices
end_header
0.15 -0.15 0 0 0 1 255 255 0 255 1 0
0 -0.15 0 0.2747211 0 0.961524 255 255 0 255 0.5 0
-0.15 -0.15 0 0 0 1 255 255 0 255 0 0
0.15 0 0 0 0 1 255 255 0 255 1 0.5
0 0 0 0.4299336 0 0.9028605 255 255 0 255 0.5 0.5
-0.15 0 0 0 0 1 255 255 0 255 0 0.5
0.15 0.15 0 0 0 1 255 255 0 255 1 1
0 0.15 0 0.2747211 0 0.961524 255 255 0 255 0.5 1
-0.15 0.15 0 0 0 1 255 255 0 255 0 1
-0.15 -0.15 -1.311342e-08 8.742278e-08 0 -1 255 255 0 255 1 0
0.15 -0.15 1.311342e-08 8.742278e-08 0 -1 255 255 0 255 0 0
-0.15 0 -1.311342e-08 8.742277e-08 0 -1 255 255 0 255 1 0.5
0.15 0 1.311342e-08 8.742277e-08 0 -1 255 255 0 255 0 0.5
-0.15 0.15 -1.311342e-08 8.742278e-08 0 -1 255 255 0 255 1 1
0.15 0.15 1.311342e-08 8.742278e-08 0 -1 255 255 0 255 0 1
0.075 -0.15 0.1299038 -0.8660255 0 0.5 255 255 0 255 1 0
-0.075 -0.15 -0.1299038 -0.8660255 0 0.5 255 255 0 255 0 0
0.075 0 0.1299038 -0.8660254 0 0.4999999 255 255 0 255 1 0.5
-0.075 0 -0.1299038 -0.8660254 0 0.4999999 255 255 0 255 0 0.5
0.075 0.15 0.1299038 -0.8660255 0 0.5 255 255 0 255 1 1
-0.075 0.15 -0.1299038 -0.8660255 0 0.5 255 255 0 255 0 1
-0.07499998 -0.15 -0.1299038 0.8660255 0 -0.4999999 255 255 0 255 1 0
0.07499998 -0.15 0.1299038 0.8660255 0 -0.4999999 255 255 0 255 0 0
-0.07499998 0 -0.1299038 0.8660255 0 -0.4999999 255 255 0 255 1 0.5
0.07499998 0 0.1299038 0.8660255 0 -0.4999999 255 255 0 255 0 0.5
-0.07499998 0.15 -0.1299038 0.8660255 0 -0.4999999 255 255 0 255 1 1
0.07499998 0.15 0.1299038 0.8660255 0 -0.4999999 255 255 0 255 0 1
-0.07500003 -0.15 0.1299038 -0.8660253 0 -0.5000001 255 255 0 255 1 0
0.07500003 -0.15 -0.1299038 -0.8660253 0 -0.5000001 255 255 0 255 0 0
-0.07500003 0 0.1299038 -0.8660253 0 -0.5000002 255 255 0 255 1 0.5
0.07500003 0 -0.1299038 -0.8660253 0 -0.5000002 255 255 0 255 0 0.5
-0.07500003 0.15 0.1299038 -0.8660253 0 -0.5000001 255 255 0 255 1 1
0.07500003 0.15 -0.1299038 -0.8660253 0 -0.5000001 255 255 0 255 0 1
0.07500003 -0.15 -0.1299038 0.8660253 0 0.5000002 255 255 0 255 1 0
-0.07500003 -0.15 0.1299038 0.8660253 0 0.5000002 255 255 0 255 0 0
0.07500003 0 -0.1299038 0.8660253 0 0.5000002 255 255 0 255 1 0.5
-0.07500003 0 0.1299038 0.8660253 0 0.5000002 255 255 0 255 0 0.5
0.07500003 0.15 -0.1299038 0.8660253 0 0.5000002 255 255 0 255 1 1
-0.07500003 0.15 0.1299038 0.8660253 0 0.5000002 255 255 0 255 0 1
3 4 1 0 
3 0 3 4 
3 5 2 1 
3 1 4 5 
3 7 4 3 
3 3 6 7 
3 8 5 4 
3 4 7 8 
3 4 1 9 
3 9 11 4 
3 12 10 1 
3 1 4 12 
3 7 4 11 
3 11 13 7 
3 14 12 4 
3 4 7 14 
3 4 1 15 
3 15 17 4 
3 18 16 1 
3 1 4 18 
3 7 4 17 
3 17 19 7 
3 20 18 4 
3 4 7 20 
3 4 1 21 
3 21 23 4 
3 24 22 1 
3 1 4 24 
3 7 4 23 
3 23 25 7 
3 26 24 4 
3 4 7 26 
3 4 1 27 
3 27 29 4 
3 30 28 1 
3 1 4 30 
3 7 4 29 
3 29 31 7 
3 32 30 4 
3 4 7 32 
3 4 1 33 
3 33 35 4 
3 36 34 1 
3 1 4 36 
3 7 4 35 
3 35 37 7 
3 38 36 4 
3 4 7 38 
