ply
format ascii 1.0
comment VCGLIB generated
comment TextureFile aerial-drone-view-rice-field.jpg
element vertex 25
property float x
property float y
property float z
property float nx
property float ny
property float nz
property uchar red
property uchar green
property uchar blue
property uchar alpha
property float texture_u
property float texture_v
element face 32
property list uchar int vertex_indices
property list uchar float texcoord
end_header
-1.999999 4.371139e-07 2 0 1 -2.185569e-07 90 90 90 255 0 0
-0.9999997 4.371139e-07 2 0 1 -2.18557e-07 90 90 90 255 0.9999997 0
0 4.371139e-07 2 0 1 -2.18557e-07 90 90 90 255 1.999999 0
0.9999994 4.371139e-07 2 0 1 -2.18557e-07 90 90 90 255 2.999999 0
1.999999 4.371139e-07 2 0 1 -2.185569e-07 90 90 90 255 3.999999 0
-1.999999 2.185569e-07 1 0 1 -2.18557e-07 90 90 90 255 0 -2.185569e-07
-0.9999997 2.185569e-07 1 0 1 -2.185569e-07 90 90 90 255 0.9999997 -2.185569e-07
0 2.185569e-07 1 0 1 -2.185569e-07 90 90 90 255 1.999999 -2.185569e-07
0.9999994 2.185569e-07 1 0 1 -2.185569e-07 90 90 90 255 2.999999 -2.185569e-07
1.999999 2.185569e-07 1 0 1 -2.18557e-07 90 90 90 255 3.999999 -2.185569e-07
-1.999999 0 0 0 1 -2.185569e-07 90 90 90 255 0 -4.371139e-07
-0.9999997 0 0 0 1 -2.185569e-07 90 90 90 255 0.9999997 -4.371139e-07
0 0 0 0 1 -2.185569e-07 90 90 90 255 1.999999 -4.371139e-07
0.9999994 0 0 0 1 -2.185569e-07 90 90 90 255 2.999999 -4.371139e-07
1.999999 0 0 0 1 -2.185569e-07 90 90 90 255 3.999999 -4.371139e-07
-1.999999 -2.185569e-07 -1 0 1 -2.185569e-07 90 90 90 255 0 -6.556708e-07
-0.9999997 -2.185569e-07 -1 0 1 -2.18557e-07 90 90 90 255 0.9999997 -6.556708e-07
0 -2.185569e-07 -1 0 1 -2.18557e-07 90 90 90 255 1.999999 -6.556708e-07
0.9999994 -2.185569e-07 -1 0 1 -2.18557e-07 90 90 90 255 2.999999 -6.556708e-07
1.999999 -2.185569e-07 -1 0 1 -2.18557e-07 90 90 90 255 3.999999 -6.556708e-07
-1.999999 -4.371139e-07 -2 0 1 -2.18557e-07 90 90 90 255 0 -8.742278e-07
-0.9999997 -4.371139e-07 -2 0 1 -2.18557e-07 90 90 90 255 0.9999997 -8.742278e-07
0 -4.371139e-07 -2 0 1 -2.18557e-07 90 90 90 255 1.999999 -8.742278e-07
0.9999994 -4.371139e-07 -2 0 1 -2.18557e-07 90 90 90 255 2.999999 -8.742278e-07
1.999999 -4.371139e-07 -2 0 1 -2.18557e-07 90 90 90 255 3.999999 -8.742278e-07
3 0 1 5 6 0 0 0.9999997 0 0 -2.185569e-07 
3 1 6 5 6 0.9999997 0 0.9999997 -2.185569e-07 0 -2.185569e-07 
3 1 2 6 6 0.9999997 0 1.999999 0 0.9999997 -2.185569e-07 
3 2 7 6 6 1.999999 0 1.999999 -2.185569e-07 0.9999997 -2.185569e-07 
3 2 3 7 6 1.999999 0 2.999999 0 1.999999 -2.185569e-07 
3 3 8 7 6 2.999999 0 2.999999 -2.185569e-07 1.999999 -2.185569e-07 
3 3 4 8 6 2.999999 0 3.999999 0 2.999999 -2.185569e-07 
3 4 9 8 6 3.999999 0 3.999999 -2.185569e-07 2.999999 -2.185569e-07 
3 5 6 10 6 0 -2.185569e-07 0.9999997 -2.185569e-07 0 -4.371139e-07 
3 6 11 10 6 0.9999997 -2.185569e-07 0.9999997 -4.371139e-07 0 -4.371139e-07 
3 6 7 11 6 0.9999997 -2.185569e-07 1.999999 -2.185569e-07 0.9999997 -4.371139e-07 
3 7 12 11 6 1.999999 -2.185569e-07 1.999999 -4.371139e-07 0.9999997 -4.371139e-07 
3 7 8 12 6 1.999999 -2.185569e-07 2.999999 -2.185569e-07 1.999999 -4.371139e-07 
3 8 13 12 6 2.999999 -2.185569e-07 2.999999 -4.371139e-07 1.999999 -4.371139e-07 
3 8 9 13 6 2.999999 -2.185569e-07 3.999999 -2.185569e-07 2.999999 -4.371139e-07 
3 9 14 13 6 3.999999 -2.185569e-07 3.999999 -4.371139e-07 2.999999 -4.371139e-07 
3 10 11 15 6 0 -4.371139e-07 0.9999997 -4.371139e-07 0 -6.556708e-07 
3 11 16 15 6 0.9999997 -4.371139e-07 0.9999997 -6.556708e-07 0 -6.556708e-07 
3 11 12 16 6 0.9999997 -4.371139e-07 1.999999 -4.371139e-07 0.9999997 -6.556708e-07 
3 12 17 16 6 1.999999 -4.371139e-07 1.999999 -6.556708e-07 0.9999997 -6.556708e-07 
3 12 13 17 6 1.999999 -4.371139e-07 2.999999 -4.371139e-07 1.999999 -6.556708e-07 
3 13 18 17 6 2.999999 -4.371139e-07 2.999999 -6.556708e-07 1.999999 -6.556708e-07 
3 13 14 18 6 2.999999 -4.371139e-07 3.999999 -4.371139e-07 2.999999 -6.556708e-07 
3 14 19 18 6 3.999999 -4.371139e-07 3.999999 -6.556708e-07 2.999999 -6.556708e-07 
3 15 16 20 6 0 -6.556708e-07 0.9999997 -6.556708e-07 0 -8.742278e-07 
3 16 21 20 6 0.9999997 -6.556708e-07 0.9999997 -8.742278e-07 0 -8.742278e-07 
3 16 17 21 6 0.9999997 -6.556708e-07 1.999999 -6.556708e-07 0.9999997 -8.742278e-07 
3 17 22 21 6 1.999999 -6.556708e-07 1.999999 -8.742278e-07 0.9999997 -8.742278e-07 
3 17 18 22 6 1.999999 -6.556708e-07 2.999999 -6.556708e-07 1.999999 -8.742278e-07 
3 18 23 22 6 2.999999 -6.556708e-07 2.999999 -8.742278e-07 1.999999 -8.742278e-07 
3 18 19 23 6 2.999999 -6.556708e-07 3.999999 -6.556708e-07 2.999999 -8.742278e-07 
3 19 24 23 6 3.999999 -6.556708e-07 3.999999 -8.742278e-07 2.999999 -8.742278e-07 
